<?xml version="1.0" encoding="UTF-8"?>
<svg version="1.1" xmlns="http://www.w3.org/2000/svg" width="36" height="39">
<path d="M0 0 C5.94 0 11.88 0 18 0 C18 0.99 18 1.98 18 3 C18.99 3 19.98 3 21 3 C21 3.99 21 4.98 21 6 C21.99 6 22.98 6 24 6 C24 8.97 24 11.94 24 15 C24.99 15 25.98 15 27 15 C27 18.96 27 22.92 27 27 C26.01 27 25.02 27 24 27 C24 27.99 24 28.98 24 30 C22.02 30 20.04 30 18 30 C18 30.99 18 31.98 18 33 C13.05 33 8.1 33 3 33 C3 32.01 3 31.02 3 30 C1.02 30 -0.96 30 -3 30 C-3 29.01 -3 28.02 -3 27 C-3.99 27 -4.98 27 -6 27 C-6 20.07 -6 13.14 -6 6 C-5.01 6 -4.02 6 -3 6 C-3 5.01 -3 4.02 -3 3 C-2.01 3 -1.02 3 0 3 C0 2.01 0 1.02 0 0 Z " fill="#9EA9AA" transform="translate(9,3)"/>
<path d="M0 0 C3.96 0 7.92 0 12 0 C12 0.99 12 1.98 12 3 C12.99 3 13.98 3 15 3 C15 3.99 15 4.98 15 6 C15.99 6 16.98 6 18 6 C18 10.95 18 15.9 18 21 C17.01 21 16.02 21 15 21 C15 19.02 15 17.04 15 15 C13.02 15 11.04 15 9 15 C9 15.99 9 16.98 9 18 C7.02 18 5.04 18 3 18 C3 17.01 3 16.02 3 15 C1.02 15 -0.96 15 -3 15 C-3 16.98 -3 18.96 -3 21 C-3.99 21 -4.98 21 -6 21 C-6 16.05 -6 11.1 -6 6 C-5.01 6 -4.02 6 -3 6 C-3 5.01 -3 4.02 -3 3 C-2.01 3 -1.02 3 0 3 C0 2.01 0 1.02 0 0 Z " fill="#A8B4B4" transform="translate(12,9)"/>
<path d="M0 0 C5.94 0 11.88 0 18 0 C18 0.99 18 1.98 18 3 C18.99 3 19.98 3 21 3 C21 5.97 21 8.94 21 12 C20.01 12 19.02 12 18 12 C18 11.01 18 10.02 18 9 C17.01 9 16.02 9 15 9 C15 8.01 15 7.02 15 6 C11.04 6 7.08 6 3 6 C3 6.99 3 7.98 3 9 C2.01 9 1.02 9 0 9 C0 9.99 0 10.98 0 12 C-0.99 12 -1.98 12 -3 12 C-3 16.95 -3 21.9 -3 27 C-3.99 27 -4.98 27 -6 27 C-6 20.07 -6 13.14 -6 6 C-5.01 6 -4.02 6 -3 6 C-3 5.01 -3 4.02 -3 3 C-2.01 3 -1.02 3 0 3 C0 2.01 0 1.02 0 0 Z " fill="#7F8B8D" transform="translate(9,3)"/>
<path d="M0 0 C0.99 0 1.98 0 3 0 C3 2.97 3 5.94 3 9 C3.99 9 4.98 9 6 9 C6 12.96 6 16.92 6 21 C5.01 21 4.02 21 3 21 C3 21.99 3 22.98 3 24 C1.02 24 -0.96 24 -3 24 C-3 23.01 -3 22.02 -3 21 C-2.01 21 -1.02 21 0 21 C0 14.07 0 7.14 0 0 Z " fill="#272C32" transform="translate(30,9)"/>
<path d="M0 0 C0.99 0 1.98 0 3 0 C3 6.93 3 13.86 3 21 C2.01 21 1.02 21 0 21 C0 14.07 0 7.14 0 0 Z " fill="#292F35" transform="translate(3,9)"/>
<path d="M0 0 C1.98 0 3.96 0 6 0 C6 1.98 6 3.96 6 6 C5.01 6 4.02 6 3 6 C3 6.99 3 7.98 3 9 C1.02 9 -0.96 9 -3 9 C-3 8.01 -3 7.02 -3 6 C-2.01 6 -1.02 6 0 6 C0 4.02 0 2.04 0 0 Z " fill="#1A1C23" transform="translate(9,24)"/>
<path d="M0 0 C5.94 0 11.88 0 18 0 C18 0.99 18 1.98 18 3 C12.06 3 6.12 3 0 3 C0 2.01 0 1.02 0 0 Z " fill="#2A2F35" transform="translate(9,3)"/>
<path d="M0 0 C4.95 0 9.9 0 15 0 C15 0.99 15 1.98 15 3 C10.05 3 5.1 3 0 3 C0 2.01 0 1.02 0 0 Z " fill="#24272D" transform="translate(12,33)"/>
<path d="M0 0 C1.98 0 3.96 0 6 0 C6 1.98 6 3.96 6 6 C4.02 6 2.04 6 0 6 C0 4.02 0 2.04 0 0 Z " fill="#1A1C23" transform="translate(21,24)"/>
<path d="M0 0 C1.98 0 3.96 0 6 0 C6 0.99 6 1.98 6 3 C4.02 3 2.04 3 0 3 C0 2.01 0 1.02 0 0 Z " fill="#1E2128" transform="translate(27,30)"/>
<path d="M0 0 C1.98 0 3.96 0 6 0 C6 0.99 6 1.98 6 3 C4.02 3 2.04 3 0 3 C0 2.01 0 1.02 0 0 Z " fill="#444A4F" transform="translate(6,30)"/>
<path d="M0 0 C1.98 0 3.96 0 6 0 C6 0.99 6 1.98 6 3 C4.02 3 2.04 3 0 3 C0 2.01 0 1.02 0 0 Z " fill="#8C989A" transform="translate(15,27)"/>
<path d="M0 0 C0.99 0 1.98 0 3 0 C3 1.98 3 3.96 3 6 C2.01 6 1.02 6 0 6 C0 4.02 0 2.04 0 0 Z " fill="#8C989A" transform="translate(27,24)"/>
<path d="M0 0 C0.99 0 1.98 0 3 0 C3 1.98 3 3.96 3 6 C2.01 6 1.02 6 0 6 C0 4.02 0 2.04 0 0 Z " fill="#8C989A" transform="translate(6,24)"/>
<path d="M0 0 C1.98 0 3.96 0 6 0 C6 0.99 6 1.98 6 3 C4.02 3 2.04 3 0 3 C0 2.01 0 1.02 0 0 Z " fill="#404E54" transform="translate(9,3)"/>
</svg>
